Coordinates
version=1
nRows=65
nColumns=12
inDegrees=yes

Units are S.I. units (second, meters, Newtons, ...)
Angles are in degrees

endheader
time	SC_y	SC_z	SC_x	AC_y	AC_z	AC_x	GH_y	GH_z	GH_yy	EL_x	PS_y
       0.0              -58.69          33.61          62.48          36.22         -18.84        -0.2338         -82.78           31.2         -113.0          91.39          65.57
   0.04832              -58.69          33.61          62.48          36.22         -18.84        -0.2336         -82.78          31.19         -113.0          91.39          65.56
   0.09663              -58.69           33.6          62.47          36.22         -18.84        -0.2334         -82.79          31.19         -112.9          91.38          65.56
    0.1449              -58.68           33.6          62.46          36.23         -18.84        -0.2332         -82.79          31.19         -112.9          91.37          65.55
    0.1933              -58.68           33.6          62.45          36.23         -18.83         -0.233          -82.8          31.19         -112.8          91.37          65.54
    0.2416              -58.68           33.6          62.44          36.24         -18.83        -0.2328          -82.8          31.18         -112.8          91.36          65.53
    0.2899              -58.68           33.6          62.44          36.24         -18.83        -0.2325         -82.81          31.18         -112.7          91.35          65.52
    0.3382              -58.68          33.59          62.43          36.24         -18.83        -0.2323         -82.81          31.18         -112.7          91.34          65.51
    0.3865              -58.68          33.59          62.41          36.25         -18.83         -0.232         -82.82          31.17         -112.6          91.33           65.5
    0.4348              -58.68          33.59           62.4          36.25         -18.82        -0.2317         -82.83          31.17         -112.6          91.32          65.49
    0.4832              -58.67          33.58          62.39          36.26         -18.82        -0.2314         -82.84          31.17         -112.5          91.31          65.48
    0.5315              -58.67          33.58          62.38          36.26         -18.82         -0.231         -82.84          31.16         -112.4           91.3          65.47
    0.5798              -58.67          33.58          62.36          36.27         -18.81        -0.2307         -82.85          31.16         -112.4          91.29          65.46
    0.6281              -58.67          33.57          62.35          36.28         -18.81        -0.2303         -82.86          31.15         -112.3          91.28          65.44
    0.6764              -58.66          33.57          62.33          36.28         -18.81        -0.2298         -82.87          31.15         -112.2          91.26          65.43
    0.7247              -58.66          33.57          62.31          36.29          -18.8        -0.2294         -82.88          31.14         -112.1          91.25          65.41
    0.7731              -58.66          33.56          62.29           36.3          -18.8        -0.2289         -82.89          31.13         -112.0          91.23          65.39
    0.8214              -58.65          33.56          62.27          36.31         -18.79        -0.2283         -82.91          31.13         -111.9          91.21          65.37
    0.8697              -58.65          33.55          62.24          36.32         -18.79        -0.2277         -82.92          31.12         -111.7          91.19          65.35
     0.918              -58.65          33.54          62.22          36.33         -18.78        -0.2271         -82.94          31.11         -111.6          91.17          65.32
    0.9663              -58.64          33.54          62.19          36.34         -18.77        -0.2263         -82.96           31.1         -111.4          91.15           65.3
     1.015              -58.64          33.53          62.16          36.36         -18.77        -0.2256         -82.97          31.09         -111.3          91.12          65.27
     1.063              -58.63          33.52          62.12          36.37         -18.76        -0.2247          -83.0          31.08         -111.1          91.09          65.24
     1.111              -58.63          33.51          62.08          36.39         -18.75        -0.2237         -83.02          31.07         -110.9          91.06           65.2
      1.16              -58.62           33.5          62.04          36.41         -18.74        -0.2226         -83.04          31.06         -110.7          91.02          65.16
     1.208              -58.61          33.49          61.99          36.43         -18.73        -0.2214         -83.07          31.04         -110.4          90.98          65.12
     1.256               -58.6          33.48          61.94          36.45         -18.72        -0.2201         -83.11          31.02         -110.1          90.94          65.07
     1.305               -58.6          33.46          61.88          36.48          -18.7        -0.2185         -83.14           31.0         -109.8          90.89          65.01
     1.353              -58.59          33.45          61.81           36.5         -18.69        -0.2168         -83.18          30.98         -109.4          90.83          64.95
     1.401              -58.57          33.43          61.73          36.54         -18.67        -0.2149         -83.23          30.96         -109.0          90.77          64.88
     1.449              -58.56          33.41          61.64          36.57         -18.65        -0.2127         -83.28          30.93         -108.6          90.69          64.79
     1.498              -58.54          33.38          61.54          36.62         -18.63        -0.2101         -83.34           30.9         -108.0          90.61           64.7
     1.546              -58.53          33.35          61.42          36.67          -18.6        -0.2072         -83.41          30.86         -107.4          90.51          64.59
     1.594              -58.51          33.32          61.28          36.73         -18.57        -0.2037          -83.5          30.82         -106.7           90.4          64.47
     1.643              -58.48          33.28          61.12          36.79         -18.53        -0.1997         -83.59          30.77         -105.8          90.27          64.32
     1.691              -58.45          33.24          60.93          36.87         -18.49         -0.195          -83.7          30.71         -104.8          90.11          64.14
     1.739              -58.42          33.18          60.71          36.97         -18.44        -0.1894         -83.84          30.64         -103.6          89.93          63.94
     1.788              -58.38          33.12          60.44          37.08         -18.38        -0.1826          -84.0          30.55         -102.2           89.7          63.69
     1.836              -58.33          33.04          60.11          37.22         -18.31        -0.1745         -84.19          30.45         -100.5          89.43          63.39
     1.884              -58.27          32.95          59.71          37.39         -18.22        -0.1645         -84.43          30.32         -98.39          89.11          63.02
     1.933              -58.19          32.83          59.22           37.6         -18.11        -0.1523         -84.72          30.17          -95.8           88.7          62.57
     1.981               -58.1          32.68          58.61          37.85         -17.97         -0.137         -85.09          29.98         -92.56          88.19          62.01
     2.029              -57.99           32.5          57.84          38.18         -17.79        -0.1177         -85.55          29.73         -88.49          87.56           61.3
     2.078              -57.84          32.26          56.85           38.6         -17.57       -0.09315         -86.14          29.43         -83.31          86.75           60.4
     2.126              -57.65          31.96           55.6          39.13         -17.29       -0.06176         -86.89          29.03         -76.68          85.71          59.24
     2.174               -57.4          31.58          53.98          39.81         -16.93       -0.02148         -87.85          28.52         -68.17          84.38          57.76
     2.223              -57.09          31.09          51.92          40.68         -16.46        0.02997         -89.08          27.88         -57.31          82.68          55.87
     2.271               -56.7          30.47          49.33          41.77         -15.88        0.09466         -90.62          27.06         -43.64          80.54          53.49
     2.319              -56.22          29.72          46.17           43.1         -15.17         0.1735          -92.5          26.07         -26.99          77.94          50.59
     2.368              -55.67          28.85          42.51          44.65         -14.34         0.2649         -94.68          24.92         -7.695          74.92          47.23
     2.416              -55.07           27.9          38.55          46.32         -13.45         0.3638         -97.05          23.68           13.2          71.65           43.6
     2.464              -54.47          26.96          34.59          47.99         -12.56         0.4628         -99.41          22.43           34.1          68.38          39.96
     2.512              -53.92          26.08          30.93          49.54         -11.73         0.5541         -101.6          21.28           53.4          65.37           36.6
     2.561              -53.44          25.33          27.77          50.87         -11.02          0.633         -103.5          20.29          70.05          62.76           33.7
     2.609              -53.05          24.71          25.18          51.96         -10.44         0.6977         -105.0          19.47          83.71          60.63          31.32
     2.657              -52.74          24.22          23.12          52.83         -9.976         0.7491         -106.2          18.83          94.58          58.93          29.43
     2.706              -52.49          23.84           21.5          53.52         -9.613         0.7894         -107.2          18.32          103.1           57.6          27.95
     2.754               -52.3          23.54          20.25          54.05          -9.33         0.8208         -108.0          17.92          109.7          56.56          26.79
     2.802              -52.16           23.3          19.26          54.46         -9.109         0.8453         -108.5          17.62          114.9          55.75          25.89
     2.851              -52.04          23.12          18.49          54.79         -8.935         0.8646         -109.0          17.37          119.0          55.11          25.18
     2.899              -51.95          22.97          17.88          55.05         -8.796         0.8799         -109.4          17.18          122.2          54.61          24.62
     2.947              -51.87          22.85          17.39          55.25         -8.686         0.8922         -109.7          17.03          124.8           54.2          24.17
     2.996              -51.81          22.76          16.99          55.42         -8.596         0.9021         -109.9           16.9          126.9          53.87           23.8
     3.044              -51.76          22.68          16.66          55.56         -8.522         0.9103         -110.1           16.8          128.6           53.6           23.5
     3.092              -51.72          22.62          16.39          55.67         -8.462          0.917         -110.3          16.71          130.0          53.38          23.25
